<svg width="44" height="44" viewBox="0 0 44 44" fill="none" xmlns="http://www.w3.org/2000/svg">
<path fill-rule="evenodd" clip-rule="evenodd" d="M9.62563 9.62563C12.9075 6.34374 17.3587 4.5 22 4.5C26.6413 4.5 31.0925 6.34374 34.3744 9.62563C37.6563 12.9075 39.5 17.3587 39.5 22C39.5 24.2981 39.0474 26.5738 38.1679 28.697C37.2884 30.8202 35.9994 32.7493 34.3744 34.3744C32.7493 35.9994 30.8202 37.2884 28.697 38.1679C26.5738 39.0474 24.2981 39.5 22 39.5C19.7019 39.5 17.4262 39.0474 15.303 38.1679C13.1798 37.2884 11.2507 35.9994 9.62563 34.3744C8.00061 32.7493 6.71157 30.8202 5.83211 28.697C4.95265 26.5738 4.5 24.2981 4.5 22C4.5 17.3587 6.34374 12.9075 9.62563 9.62563ZM22 6.5C17.8891 6.5 13.9467 8.13303 11.0398 11.0398C8.13303 13.9467 6.5 17.8891 6.5 22C6.5 24.0355 6.90092 26.051 7.67987 27.9316C8.45881 29.8121 9.60054 31.5208 11.0398 32.9602C12.4792 34.3995 14.1879 35.5412 16.0684 36.3201C17.949 37.0991 19.9645 37.5 22 37.5C24.0355 37.5 26.051 37.0991 27.9316 36.3201C29.8121 35.5412 31.5208 34.3995 32.9602 32.9602C34.3995 31.5208 35.5412 29.8121 36.3201 27.9316C37.0991 26.051 37.5 24.0355 37.5 22C37.5 17.8891 35.867 13.9467 32.9602 11.0398C30.0533 8.13303 26.1109 6.5 22 6.5Z" fill="#737373"/>
<path fill-rule="evenodd" clip-rule="evenodd" d="M21 16.5C21 15.9477 21.4477 15.5 22 15.5H22.0183C22.5706 15.5 23.0183 15.9477 23.0183 16.5C23.0183 17.0523 22.5706 17.5 22.0183 17.5H22C21.4477 17.5 21 17.0523 21 16.5Z" fill="#737373"/>
<path fill-rule="evenodd" clip-rule="evenodd" d="M19.1666 22C19.1666 21.4477 19.6143 21 20.1666 21H22C22.5522 21 23 21.4477 23 22V28.3333H23.8333C24.3856 28.3333 24.8333 28.781 24.8333 29.3333C24.8333 29.8856 24.3856 30.3333 23.8333 30.3333H22C21.4477 30.3333 21 29.8856 21 29.3333V23H20.1666C19.6143 23 19.1666 22.5523 19.1666 22Z" fill="#737373"/>
</svg>
