<svg width="20" height="20" viewBox="0 0 20 20" fill="none" xmlns="http://www.w3.org/2000/svg">
<path fill-rule="evenodd" clip-rule="evenodd" d="M9.16634 3.25C9.14424 3.25 9.12304 3.25878 9.10742 3.27441C9.09179 3.29004 9.08301 3.31123 9.08301 3.33333V8.33333C9.08301 8.35543 9.09179 8.37663 9.10742 8.39226C9.12304 8.40789 9.14424 8.41667 9.16634 8.41667H14.9997C15.1986 8.41667 15.3894 8.49568 15.53 8.63634L16.7497 9.85601V3.33333C16.7497 3.31123 16.7409 3.29003 16.7253 3.27441C16.7096 3.25878 16.6884 3.25 16.6663 3.25H9.16634ZM8.04676 2.21375C8.34369 1.91681 8.74641 1.75 9.16634 1.75H16.6663C17.0863 1.75 17.489 1.91681 17.7859 2.21375C18.0829 2.51068 18.2497 2.91341 18.2497 3.33333V11.6667C18.2497 11.97 18.0669 12.2435 17.7867 12.3596C17.5064 12.4757 17.1838 12.4115 16.9693 12.197L14.689 9.91667H9.16634C8.74641 9.91667 8.34369 9.74985 8.04676 9.45292C7.74982 9.15599 7.58301 8.75326 7.58301 8.33333V3.33333C7.58301 2.91341 7.74982 2.51068 8.04676 2.21375Z" fill="#0D0D0D"/>
<path fill-rule="evenodd" clip-rule="evenodd" d="M3.33309 9.08325C3.31099 9.08325 3.28979 9.09203 3.27416 9.10766C3.25854 9.12329 3.24976 9.14448 3.24976 9.16659V15.6893L4.46943 14.4696C4.61008 14.3289 4.80084 14.2499 4.99976 14.2499H10.8331C10.8552 14.2499 10.8764 14.2411 10.892 14.2255C10.9076 14.2099 10.9164 14.1887 10.9164 14.1666V12.4999C10.9164 12.0857 11.2522 11.7499 11.6664 11.7499C12.0806 11.7499 12.4164 12.0857 12.4164 12.4999V14.1666C12.4164 14.5865 12.2496 14.9892 11.9527 15.2862C11.6557 15.5831 11.253 15.7499 10.8331 15.7499H5.31042L3.03009 18.0302C2.81559 18.2447 2.493 18.3089 2.21274 18.1928C1.93249 18.0767 1.74976 17.8033 1.74976 17.4999V9.16659C1.74976 8.74666 1.91657 8.34393 2.2135 8.047C2.51044 7.75007 2.91316 7.58325 3.33309 7.58325H4.99976C5.41397 7.58325 5.74976 7.91904 5.74976 8.33325C5.74976 8.74747 5.41397 9.08325 4.99976 9.08325H3.33309Z" fill="#0D0D0D"/>
</svg>
